<mxfile host="app.diagrams.net" agent="Mozilla/5.0 (Windows NT 10.0; Win64; x64) AppleWebKit/537.36 (KHTML, like Gecko) Chrome/130.0.0.0 Safari/537.36" version="24.8.4">
  <diagram name="Page-1" id="fjUaZwl83q2cTYFoKg34">
    <mxGraphModel dx="1514" dy="600" grid="0" gridSize="10" guides="1" tooltips="1" connect="1" arrows="1" fold="1" page="0" pageScale="1" pageWidth="850" pageHeight="1100" math="0" shadow="0">
      <root>
        <mxCell id="0" />
        <mxCell id="1" parent="0" />
        <mxCell id="RFaDTuxYLjVsf7FS-NV_-8" value="&lt;p style=&quot;margin:0px;margin-top:6px;text-align:center;&quot;&gt;&lt;b&gt;WebStore&amp;nbsp;&lt;/b&gt;&lt;/p&gt;&lt;hr size=&quot;1&quot; style=&quot;border-style:solid;&quot;&gt;&lt;p style=&quot;margin:0px;margin-left:8px;&quot;&gt;&lt;br&gt;&lt;/p&gt;" style="align=left;overflow=fill;html=1;dropTarget=0;whiteSpace=wrap;" parent="1" vertex="1">
          <mxGeometry x="30" y="100" width="380" height="560" as="geometry" />
        </mxCell>
        <mxCell id="RFaDTuxYLjVsf7FS-NV_-9" value="" style="shape=component;jettyWidth=8;jettyHeight=4;" parent="RFaDTuxYLjVsf7FS-NV_-8" vertex="1">
          <mxGeometry x="1" width="20" height="20" relative="1" as="geometry">
            <mxPoint x="-24" y="4" as="offset" />
          </mxGeometry>
        </mxCell>
        <mxCell id="RFaDTuxYLjVsf7FS-NV_-10" value=":SearchEngine" style="html=1;dropTarget=0;whiteSpace=wrap;" parent="1" vertex="1">
          <mxGeometry x="140" y="190" width="180" height="90" as="geometry" />
        </mxCell>
        <mxCell id="RFaDTuxYLjVsf7FS-NV_-11" value="" style="shape=module;jettyWidth=8;jettyHeight=4;" parent="RFaDTuxYLjVsf7FS-NV_-10" vertex="1">
          <mxGeometry x="1" width="20" height="20" relative="1" as="geometry">
            <mxPoint x="-27" y="7" as="offset" />
          </mxGeometry>
        </mxCell>
        <mxCell id="RFaDTuxYLjVsf7FS-NV_-12" value=":ShoppingCart" style="html=1;dropTarget=0;whiteSpace=wrap;" parent="1" vertex="1">
          <mxGeometry x="140" y="350" width="180" height="90" as="geometry" />
        </mxCell>
        <mxCell id="RFaDTuxYLjVsf7FS-NV_-13" value="" style="shape=module;jettyWidth=8;jettyHeight=4;" parent="RFaDTuxYLjVsf7FS-NV_-12" vertex="1">
          <mxGeometry x="1" width="20" height="20" relative="1" as="geometry">
            <mxPoint x="-27" y="7" as="offset" />
          </mxGeometry>
        </mxCell>
        <mxCell id="RFaDTuxYLjVsf7FS-NV_-14" value=":Authentication" style="html=1;dropTarget=0;whiteSpace=wrap;" parent="1" vertex="1">
          <mxGeometry x="140" y="520" width="180" height="90" as="geometry" />
        </mxCell>
        <mxCell id="RFaDTuxYLjVsf7FS-NV_-15" value="" style="shape=module;jettyWidth=8;jettyHeight=4;" parent="RFaDTuxYLjVsf7FS-NV_-14" vertex="1">
          <mxGeometry x="1" width="20" height="20" relative="1" as="geometry">
            <mxPoint x="-27" y="7" as="offset" />
          </mxGeometry>
        </mxCell>
        <mxCell id="RFaDTuxYLjVsf7FS-NV_-16" value="&lt;p style=&quot;margin:0px;margin-top:6px;text-align:center;&quot;&gt;&lt;b&gt;Warehouses&lt;/b&gt;&lt;/p&gt;&lt;hr size=&quot;1&quot; style=&quot;border-style:solid;&quot;&gt;&lt;p style=&quot;margin:0px;margin-left:8px;&quot;&gt;&lt;br&gt;&lt;/p&gt;" style="align=left;overflow=fill;html=1;dropTarget=0;whiteSpace=wrap;" parent="1" vertex="1">
          <mxGeometry x="540" y="100" width="330" height="170" as="geometry" />
        </mxCell>
        <mxCell id="RFaDTuxYLjVsf7FS-NV_-17" value="" style="shape=component;jettyWidth=8;jettyHeight=4;" parent="RFaDTuxYLjVsf7FS-NV_-16" vertex="1">
          <mxGeometry x="1" width="20" height="20" relative="1" as="geometry">
            <mxPoint x="-24" y="4" as="offset" />
          </mxGeometry>
        </mxCell>
        <mxCell id="RFaDTuxYLjVsf7FS-NV_-20" value=":Inventory" style="html=1;dropTarget=0;whiteSpace=wrap;" parent="1" vertex="1">
          <mxGeometry x="630" y="180" width="140" height="80" as="geometry" />
        </mxCell>
        <mxCell id="RFaDTuxYLjVsf7FS-NV_-21" value="" style="shape=module;jettyWidth=8;jettyHeight=4;" parent="RFaDTuxYLjVsf7FS-NV_-20" vertex="1">
          <mxGeometry x="1" width="20" height="20" relative="1" as="geometry">
            <mxPoint x="-27" y="7" as="offset" />
          </mxGeometry>
        </mxCell>
        <mxCell id="RFaDTuxYLjVsf7FS-NV_-25" value="&lt;p style=&quot;margin:0px;margin-top:6px;text-align:center;&quot;&gt;&lt;b&gt;Accounting&lt;/b&gt;&lt;/p&gt;&lt;hr size=&quot;1&quot; style=&quot;border-style:solid;&quot;&gt;&lt;p style=&quot;margin:0px;margin-left:8px;&quot;&gt;&lt;br&gt;&lt;/p&gt;" style="align=left;overflow=fill;html=1;dropTarget=0;whiteSpace=wrap;" parent="1" vertex="1">
          <mxGeometry x="540" y="300" width="330" height="350" as="geometry" />
        </mxCell>
        <mxCell id="RFaDTuxYLjVsf7FS-NV_-26" value="" style="shape=component;jettyWidth=8;jettyHeight=4;" parent="RFaDTuxYLjVsf7FS-NV_-25" vertex="1">
          <mxGeometry x="1" width="20" height="20" relative="1" as="geometry">
            <mxPoint x="-24" y="4" as="offset" />
          </mxGeometry>
        </mxCell>
        <mxCell id="RFaDTuxYLjVsf7FS-NV_-27" value=":Orders" style="html=1;dropTarget=0;whiteSpace=wrap;" parent="1" vertex="1">
          <mxGeometry x="620" y="355" width="150" height="75" as="geometry" />
        </mxCell>
        <mxCell id="RFaDTuxYLjVsf7FS-NV_-28" value="" style="shape=module;jettyWidth=8;jettyHeight=4;" parent="RFaDTuxYLjVsf7FS-NV_-27" vertex="1">
          <mxGeometry x="1" width="20" height="20" relative="1" as="geometry">
            <mxPoint x="-27" y="7" as="offset" />
          </mxGeometry>
        </mxCell>
        <mxCell id="RFaDTuxYLjVsf7FS-NV_-29" value=":Customers" style="html=1;dropTarget=0;whiteSpace=wrap;" parent="1" vertex="1">
          <mxGeometry x="630" y="520" width="130" height="90" as="geometry" />
        </mxCell>
        <mxCell id="RFaDTuxYLjVsf7FS-NV_-30" value="" style="shape=module;jettyWidth=8;jettyHeight=4;" parent="RFaDTuxYLjVsf7FS-NV_-29" vertex="1">
          <mxGeometry x="1" width="20" height="20" relative="1" as="geometry">
            <mxPoint x="-27" y="7" as="offset" />
          </mxGeometry>
        </mxCell>
        <mxCell id="RFaDTuxYLjVsf7FS-NV_-31" value="" style="whiteSpace=wrap;html=1;aspect=fixed;" parent="1" vertex="1">
          <mxGeometry x="310" y="220" width="20" height="20" as="geometry" />
        </mxCell>
        <mxCell id="RFaDTuxYLjVsf7FS-NV_-32" value="" style="whiteSpace=wrap;html=1;aspect=fixed;" parent="1" vertex="1">
          <mxGeometry x="400" y="220" width="20" height="20" as="geometry" />
        </mxCell>
        <mxCell id="RFaDTuxYLjVsf7FS-NV_-34" value="" style="whiteSpace=wrap;html=1;aspect=fixed;" parent="1" vertex="1">
          <mxGeometry x="530" y="220" width="20" height="20" as="geometry" />
        </mxCell>
        <mxCell id="RFaDTuxYLjVsf7FS-NV_-35" value="" style="whiteSpace=wrap;html=1;aspect=fixed;" parent="1" vertex="1">
          <mxGeometry x="620" y="220" width="20" height="20" as="geometry" />
        </mxCell>
        <mxCell id="RFaDTuxYLjVsf7FS-NV_-36" value="" style="whiteSpace=wrap;html=1;aspect=fixed;" parent="1" vertex="1">
          <mxGeometry x="130" y="385" width="20" height="20" as="geometry" />
        </mxCell>
        <mxCell id="RFaDTuxYLjVsf7FS-NV_-37" value="" style="whiteSpace=wrap;html=1;aspect=fixed;" parent="1" vertex="1">
          <mxGeometry x="130" y="220" width="20" height="20" as="geometry" />
        </mxCell>
        <mxCell id="RFaDTuxYLjVsf7FS-NV_-38" value="" style="whiteSpace=wrap;html=1;aspect=fixed;" parent="1" vertex="1">
          <mxGeometry x="310" y="390" width="20" height="20" as="geometry" />
        </mxCell>
        <mxCell id="RFaDTuxYLjVsf7FS-NV_-39" value="" style="whiteSpace=wrap;html=1;aspect=fixed;" parent="1" vertex="1">
          <mxGeometry x="530" y="390" width="20" height="20" as="geometry" />
        </mxCell>
        <mxCell id="RFaDTuxYLjVsf7FS-NV_-40" value="" style="whiteSpace=wrap;html=1;aspect=fixed;" parent="1" vertex="1">
          <mxGeometry x="610" y="390" width="20" height="20" as="geometry" />
        </mxCell>
        <mxCell id="RFaDTuxYLjVsf7FS-NV_-41" value="" style="whiteSpace=wrap;html=1;aspect=fixed;" parent="1" vertex="1">
          <mxGeometry x="620" y="555" width="20" height="20" as="geometry" />
        </mxCell>
        <mxCell id="RFaDTuxYLjVsf7FS-NV_-42" value="" style="whiteSpace=wrap;html=1;aspect=fixed;" parent="1" vertex="1">
          <mxGeometry x="530" y="555" width="20" height="20" as="geometry" />
        </mxCell>
        <mxCell id="RFaDTuxYLjVsf7FS-NV_-43" value="" style="whiteSpace=wrap;html=1;aspect=fixed;" parent="1" vertex="1">
          <mxGeometry x="130" y="555" width="20" height="20" as="geometry" />
        </mxCell>
        <mxCell id="RFaDTuxYLjVsf7FS-NV_-44" value="" style="whiteSpace=wrap;html=1;aspect=fixed;" parent="1" vertex="1">
          <mxGeometry x="310" y="555" width="20" height="20" as="geometry" />
        </mxCell>
        <mxCell id="RFaDTuxYLjVsf7FS-NV_-45" value="" style="whiteSpace=wrap;html=1;aspect=fixed;" parent="1" vertex="1">
          <mxGeometry x="400" y="555" width="20" height="20" as="geometry" />
        </mxCell>
        <mxCell id="RFaDTuxYLjVsf7FS-NV_-46" value="" style="whiteSpace=wrap;html=1;aspect=fixed;" parent="1" vertex="1">
          <mxGeometry x="400" y="390" width="20" height="20" as="geometry" />
        </mxCell>
        <mxCell id="RFaDTuxYLjVsf7FS-NV_-47" value="" style="whiteSpace=wrap;html=1;aspect=fixed;" parent="1" vertex="1">
          <mxGeometry x="860" y="220" width="20" height="20" as="geometry" />
        </mxCell>
        <mxCell id="RFaDTuxYLjVsf7FS-NV_-48" value="" style="whiteSpace=wrap;html=1;aspect=fixed;" parent="1" vertex="1">
          <mxGeometry x="760" y="220" width="20" height="20" as="geometry" />
        </mxCell>
        <mxCell id="RFaDTuxYLjVsf7FS-NV_-49" value="" style="whiteSpace=wrap;html=1;aspect=fixed;" parent="1" vertex="1">
          <mxGeometry x="760" y="390" width="20" height="20" as="geometry" />
        </mxCell>
        <mxCell id="RFaDTuxYLjVsf7FS-NV_-50" value="" style="whiteSpace=wrap;html=1;aspect=fixed;" parent="1" vertex="1">
          <mxGeometry x="860" y="390" width="20" height="20" as="geometry" />
        </mxCell>
        <mxCell id="RFaDTuxYLjVsf7FS-NV_-51" value="" style="whiteSpace=wrap;html=1;aspect=fixed;" parent="1" vertex="1">
          <mxGeometry x="20" y="555" width="20" height="20" as="geometry" />
        </mxCell>
        <mxCell id="RFaDTuxYLjVsf7FS-NV_-52" value="" style="whiteSpace=wrap;html=1;aspect=fixed;" parent="1" vertex="1">
          <mxGeometry x="20" y="385" width="20" height="20" as="geometry" />
        </mxCell>
        <mxCell id="RFaDTuxYLjVsf7FS-NV_-53" value="" style="whiteSpace=wrap;html=1;aspect=fixed;" parent="1" vertex="1">
          <mxGeometry x="20" y="220" width="20" height="20" as="geometry" />
        </mxCell>
        <mxCell id="RFaDTuxYLjVsf7FS-NV_-56" value="" style="ellipse;whiteSpace=wrap;html=1;align=center;aspect=fixed;fillColor=none;strokeColor=none;resizable=0;perimeter=centerPerimeter;rotatable=0;allowArrows=0;points=[];outlineConnect=1;" parent="1" vertex="1">
          <mxGeometry x="300" y="310" width="10" height="10" as="geometry" />
        </mxCell>
        <mxCell id="RFaDTuxYLjVsf7FS-NV_-58" value="" style="rounded=0;orthogonalLoop=1;jettySize=auto;html=1;endArrow=oval;endFill=0;sketch=0;sourcePerimeterSpacing=0;targetPerimeterSpacing=0;endSize=10;" parent="1" edge="1">
          <mxGeometry relative="1" as="geometry">
            <mxPoint x="130" y="234.5" as="sourcePoint" />
            <mxPoint x="70" y="235" as="targetPoint" />
          </mxGeometry>
        </mxCell>
        <mxCell id="RFaDTuxYLjVsf7FS-NV_-59" value="" style="ellipse;whiteSpace=wrap;html=1;align=center;aspect=fixed;fillColor=none;strokeColor=none;resizable=0;perimeter=centerPerimeter;rotatable=0;allowArrows=0;points=[];outlineConnect=1;" parent="1" vertex="1">
          <mxGeometry x="120" y="300" width="10" height="10" as="geometry" />
        </mxCell>
        <mxCell id="RFaDTuxYLjVsf7FS-NV_-62" value="" style="ellipse;whiteSpace=wrap;html=1;align=center;aspect=fixed;fillColor=none;strokeColor=none;resizable=0;perimeter=centerPerimeter;rotatable=0;allowArrows=0;points=[];outlineConnect=1;" parent="1" vertex="1">
          <mxGeometry x="410" y="300" width="10" height="10" as="geometry" />
        </mxCell>
        <mxCell id="RFaDTuxYLjVsf7FS-NV_-63" value="" style="line;strokeWidth=1;fillColor=none;align=left;verticalAlign=middle;spacingTop=-1;spacingLeft=3;spacingRight=3;rotatable=0;labelPosition=right;points=[];portConstraint=eastwest;strokeColor=inherit;" parent="1" vertex="1">
          <mxGeometry x="40" y="230" width="30" height="10" as="geometry" />
        </mxCell>
        <mxCell id="RFaDTuxYLjVsf7FS-NV_-69" value="" style="rounded=0;orthogonalLoop=1;jettySize=auto;html=1;endArrow=oval;endFill=0;sketch=0;sourcePerimeterSpacing=0;targetPerimeterSpacing=0;endSize=10;exitX=0;exitY=0.75;exitDx=0;exitDy=0;" parent="1" source="RFaDTuxYLjVsf7FS-NV_-53" edge="1">
          <mxGeometry relative="1" as="geometry">
            <mxPoint x="400" y="305" as="sourcePoint" />
            <mxPoint x="-20" y="235" as="targetPoint" />
          </mxGeometry>
        </mxCell>
        <mxCell id="RFaDTuxYLjVsf7FS-NV_-70" value="" style="ellipse;whiteSpace=wrap;html=1;align=center;aspect=fixed;fillColor=none;strokeColor=none;resizable=0;perimeter=centerPerimeter;rotatable=0;allowArrows=0;points=[];outlineConnect=1;" parent="1" vertex="1">
          <mxGeometry x="170" y="310" width="10" height="10" as="geometry" />
        </mxCell>
        <mxCell id="RFaDTuxYLjVsf7FS-NV_-72" value="" style="rounded=0;orthogonalLoop=1;jettySize=auto;html=1;endArrow=oval;endFill=0;sketch=0;sourcePerimeterSpacing=0;targetPerimeterSpacing=0;endSize=10;exitX=0;exitY=0.5;exitDx=0;exitDy=0;" parent="1" source="RFaDTuxYLjVsf7FS-NV_-52" edge="1">
          <mxGeometry relative="1" as="geometry">
            <mxPoint x="400" y="305" as="sourcePoint" />
            <mxPoint x="-20" y="395" as="targetPoint" />
          </mxGeometry>
        </mxCell>
        <mxCell id="RFaDTuxYLjVsf7FS-NV_-73" value="" style="ellipse;whiteSpace=wrap;html=1;align=center;aspect=fixed;fillColor=none;strokeColor=none;resizable=0;perimeter=centerPerimeter;rotatable=0;allowArrows=0;points=[];outlineConnect=1;" parent="1" vertex="1">
          <mxGeometry x="415" y="300" width="10" height="10" as="geometry" />
        </mxCell>
        <mxCell id="RFaDTuxYLjVsf7FS-NV_-75" value="" style="rounded=0;orthogonalLoop=1;jettySize=auto;html=1;endArrow=oval;endFill=0;sketch=0;sourcePerimeterSpacing=0;targetPerimeterSpacing=0;endSize=10;exitX=0;exitY=0.5;exitDx=0;exitDy=0;" parent="1" source="RFaDTuxYLjVsf7FS-NV_-36" edge="1">
          <mxGeometry relative="1" as="geometry">
            <mxPoint x="400" y="305" as="sourcePoint" />
            <mxPoint x="60" y="395" as="targetPoint" />
          </mxGeometry>
        </mxCell>
        <mxCell id="RFaDTuxYLjVsf7FS-NV_-76" value="" style="ellipse;whiteSpace=wrap;html=1;align=center;aspect=fixed;fillColor=none;strokeColor=none;resizable=0;perimeter=centerPerimeter;rotatable=0;allowArrows=0;points=[];outlineConnect=1;" parent="1" vertex="1">
          <mxGeometry x="350" y="310" width="10" height="10" as="geometry" />
        </mxCell>
        <mxCell id="RFaDTuxYLjVsf7FS-NV_-77" value="" style="line;strokeWidth=1;fillColor=none;align=left;verticalAlign=middle;spacingTop=-1;spacingLeft=3;spacingRight=3;rotatable=0;labelPosition=right;points=[];portConstraint=eastwest;strokeColor=inherit;" parent="1" vertex="1">
          <mxGeometry x="40" y="391" width="20" height="8" as="geometry" />
        </mxCell>
        <mxCell id="RFaDTuxYLjVsf7FS-NV_-79" value="" style="rounded=0;orthogonalLoop=1;jettySize=auto;html=1;endArrow=oval;endFill=0;sketch=0;sourcePerimeterSpacing=0;targetPerimeterSpacing=0;endSize=10;exitX=0;exitY=0.5;exitDx=0;exitDy=0;" parent="1" source="RFaDTuxYLjVsf7FS-NV_-51" edge="1">
          <mxGeometry relative="1" as="geometry">
            <mxPoint x="400" y="305" as="sourcePoint" />
            <mxPoint x="-20" y="565" as="targetPoint" />
          </mxGeometry>
        </mxCell>
        <mxCell id="RFaDTuxYLjVsf7FS-NV_-80" value="" style="ellipse;whiteSpace=wrap;html=1;align=center;aspect=fixed;fillColor=none;strokeColor=none;resizable=0;perimeter=centerPerimeter;rotatable=0;allowArrows=0;points=[];outlineConnect=1;" parent="1" vertex="1">
          <mxGeometry x="310" y="310" width="10" height="10" as="geometry" />
        </mxCell>
        <mxCell id="RFaDTuxYLjVsf7FS-NV_-82" value="" style="rounded=0;orthogonalLoop=1;jettySize=auto;html=1;endArrow=oval;endFill=0;sketch=0;sourcePerimeterSpacing=0;targetPerimeterSpacing=0;endSize=10;exitX=0;exitY=0.5;exitDx=0;exitDy=0;" parent="1" source="RFaDTuxYLjVsf7FS-NV_-43" edge="1">
          <mxGeometry relative="1" as="geometry">
            <mxPoint x="400" y="305" as="sourcePoint" />
            <mxPoint x="60" y="565" as="targetPoint" />
          </mxGeometry>
        </mxCell>
        <mxCell id="RFaDTuxYLjVsf7FS-NV_-83" value="" style="ellipse;whiteSpace=wrap;html=1;align=center;aspect=fixed;fillColor=none;strokeColor=none;resizable=0;perimeter=centerPerimeter;rotatable=0;allowArrows=0;points=[];outlineConnect=1;" parent="1" vertex="1">
          <mxGeometry x="360" y="310" width="10" height="10" as="geometry" />
        </mxCell>
        <mxCell id="RFaDTuxYLjVsf7FS-NV_-84" value="" style="line;strokeWidth=1;fillColor=none;align=left;verticalAlign=middle;spacingTop=-1;spacingLeft=3;spacingRight=3;rotatable=0;labelPosition=right;points=[];portConstraint=eastwest;strokeColor=inherit;" parent="1" vertex="1">
          <mxGeometry x="40" y="561" width="20" height="8" as="geometry" />
        </mxCell>
        <mxCell id="RFaDTuxYLjVsf7FS-NV_-85" value="" style="rounded=0;orthogonalLoop=1;jettySize=auto;html=1;endArrow=halfCircle;endFill=0;endSize=6;strokeWidth=1;sketch=0;fontSize=12;curved=1;exitX=1;exitY=0.5;exitDx=0;exitDy=0;" parent="1" source="RFaDTuxYLjVsf7FS-NV_-31" edge="1">
          <mxGeometry relative="1" as="geometry">
            <mxPoint x="435" y="305" as="sourcePoint" />
            <mxPoint x="360" y="230" as="targetPoint" />
          </mxGeometry>
        </mxCell>
        <mxCell id="RFaDTuxYLjVsf7FS-NV_-86" value="" style="ellipse;whiteSpace=wrap;html=1;align=center;aspect=fixed;fillColor=none;strokeColor=none;resizable=0;perimeter=centerPerimeter;rotatable=0;allowArrows=0;points=[];outlineConnect=1;" parent="1" vertex="1">
          <mxGeometry x="410" y="300" width="10" height="10" as="geometry" />
        </mxCell>
        <mxCell id="RFaDTuxYLjVsf7FS-NV_-87" value="" style="rounded=0;orthogonalLoop=1;jettySize=auto;html=1;endArrow=halfCircle;endFill=0;endSize=6;strokeWidth=1;sketch=0;fontSize=12;curved=1;exitX=1;exitY=0.5;exitDx=0;exitDy=0;" parent="1" source="RFaDTuxYLjVsf7FS-NV_-38" edge="1">
          <mxGeometry relative="1" as="geometry">
            <mxPoint x="435" y="305" as="sourcePoint" />
            <mxPoint x="360" y="400" as="targetPoint" />
          </mxGeometry>
        </mxCell>
        <mxCell id="RFaDTuxYLjVsf7FS-NV_-88" value="" style="ellipse;whiteSpace=wrap;html=1;align=center;aspect=fixed;fillColor=none;strokeColor=none;resizable=0;perimeter=centerPerimeter;rotatable=0;allowArrows=0;points=[];outlineConnect=1;" parent="1" vertex="1">
          <mxGeometry x="410" y="300" width="10" height="10" as="geometry" />
        </mxCell>
        <mxCell id="RFaDTuxYLjVsf7FS-NV_-89" value="" style="rounded=0;orthogonalLoop=1;jettySize=auto;html=1;endArrow=halfCircle;endFill=0;endSize=6;strokeWidth=1;sketch=0;fontSize=12;curved=1;exitX=1;exitY=0.5;exitDx=0;exitDy=0;" parent="1" source="RFaDTuxYLjVsf7FS-NV_-44" edge="1">
          <mxGeometry relative="1" as="geometry">
            <mxPoint x="435" y="305" as="sourcePoint" />
            <mxPoint x="360" y="565" as="targetPoint" />
          </mxGeometry>
        </mxCell>
        <mxCell id="RFaDTuxYLjVsf7FS-NV_-90" value="" style="ellipse;whiteSpace=wrap;html=1;align=center;aspect=fixed;fillColor=none;strokeColor=none;resizable=0;perimeter=centerPerimeter;rotatable=0;allowArrows=0;points=[];outlineConnect=1;" parent="1" vertex="1">
          <mxGeometry x="410" y="300" width="10" height="10" as="geometry" />
        </mxCell>
        <mxCell id="RFaDTuxYLjVsf7FS-NV_-91" value="" style="line;strokeWidth=1;fillColor=none;align=left;verticalAlign=middle;spacingTop=-1;spacingLeft=3;spacingRight=3;rotatable=0;labelPosition=right;points=[];portConstraint=eastwest;strokeColor=inherit;" parent="1" vertex="1">
          <mxGeometry x="360" y="561" width="40" height="8" as="geometry" />
        </mxCell>
        <mxCell id="RFaDTuxYLjVsf7FS-NV_-92" value="" style="line;strokeWidth=1;fillColor=none;align=left;verticalAlign=middle;spacingTop=-1;spacingLeft=3;spacingRight=3;rotatable=0;labelPosition=right;points=[];portConstraint=eastwest;strokeColor=inherit;" parent="1" vertex="1">
          <mxGeometry x="360" y="396" width="40" height="8" as="geometry" />
        </mxCell>
        <mxCell id="RFaDTuxYLjVsf7FS-NV_-93" value="" style="line;strokeWidth=1;fillColor=none;align=left;verticalAlign=middle;spacingTop=-1;spacingLeft=3;spacingRight=3;rotatable=0;labelPosition=right;points=[];portConstraint=eastwest;strokeColor=inherit;" parent="1" vertex="1">
          <mxGeometry x="360" y="226" width="40" height="8" as="geometry" />
        </mxCell>
        <mxCell id="RFaDTuxYLjVsf7FS-NV_-94" value="" style="rounded=0;orthogonalLoop=1;jettySize=auto;html=1;endArrow=halfCircle;endFill=0;endSize=6;strokeWidth=1;sketch=0;fontSize=12;curved=1;exitX=1;exitY=0.5;exitDx=0;exitDy=0;" parent="1" source="RFaDTuxYLjVsf7FS-NV_-32" edge="1">
          <mxGeometry relative="1" as="geometry">
            <mxPoint x="435" y="305" as="sourcePoint" />
            <mxPoint x="450" y="230" as="targetPoint" />
          </mxGeometry>
        </mxCell>
        <mxCell id="RFaDTuxYLjVsf7FS-NV_-95" value="" style="ellipse;whiteSpace=wrap;html=1;align=center;aspect=fixed;fillColor=none;strokeColor=none;resizable=0;perimeter=centerPerimeter;rotatable=0;allowArrows=0;points=[];outlineConnect=1;" parent="1" vertex="1">
          <mxGeometry x="410" y="300" width="10" height="10" as="geometry" />
        </mxCell>
        <mxCell id="RFaDTuxYLjVsf7FS-NV_-96" value="" style="rounded=0;orthogonalLoop=1;jettySize=auto;html=1;endArrow=halfCircle;endFill=0;endSize=6;strokeWidth=1;sketch=0;fontSize=12;curved=1;exitX=1;exitY=0.5;exitDx=0;exitDy=0;" parent="1" source="RFaDTuxYLjVsf7FS-NV_-45" edge="1">
          <mxGeometry relative="1" as="geometry">
            <mxPoint x="430" y="570" as="sourcePoint" />
            <mxPoint x="450" y="565" as="targetPoint" />
          </mxGeometry>
        </mxCell>
        <mxCell id="RFaDTuxYLjVsf7FS-NV_-97" value="" style="ellipse;whiteSpace=wrap;html=1;align=center;aspect=fixed;fillColor=none;strokeColor=none;resizable=0;perimeter=centerPerimeter;rotatable=0;allowArrows=0;points=[];outlineConnect=1;" parent="1" vertex="1">
          <mxGeometry x="410" y="300" width="10" height="10" as="geometry" />
        </mxCell>
        <mxCell id="RFaDTuxYLjVsf7FS-NV_-98" value="" style="rounded=0;orthogonalLoop=1;jettySize=auto;html=1;endArrow=halfCircle;endFill=0;endSize=6;strokeWidth=1;sketch=0;fontSize=12;curved=1;exitX=1;exitY=0.5;exitDx=0;exitDy=0;" parent="1" source="RFaDTuxYLjVsf7FS-NV_-46" edge="1">
          <mxGeometry relative="1" as="geometry">
            <mxPoint x="435" y="305" as="sourcePoint" />
            <mxPoint x="450" y="400" as="targetPoint" />
          </mxGeometry>
        </mxCell>
        <mxCell id="RFaDTuxYLjVsf7FS-NV_-99" value="" style="ellipse;whiteSpace=wrap;html=1;align=center;aspect=fixed;fillColor=none;strokeColor=none;resizable=0;perimeter=centerPerimeter;rotatable=0;allowArrows=0;points=[];outlineConnect=1;" parent="1" vertex="1">
          <mxGeometry x="410" y="300" width="10" height="10" as="geometry" />
        </mxCell>
        <mxCell id="RFaDTuxYLjVsf7FS-NV_-101" value="" style="rounded=0;orthogonalLoop=1;jettySize=auto;html=1;endArrow=oval;endFill=0;sketch=0;sourcePerimeterSpacing=0;targetPerimeterSpacing=0;endSize=10;exitX=0;exitY=0.5;exitDx=0;exitDy=0;" parent="1" source="RFaDTuxYLjVsf7FS-NV_-34" edge="1">
          <mxGeometry relative="1" as="geometry">
            <mxPoint x="400" y="305" as="sourcePoint" />
            <mxPoint x="500" y="230" as="targetPoint" />
          </mxGeometry>
        </mxCell>
        <mxCell id="RFaDTuxYLjVsf7FS-NV_-102" value="" style="ellipse;whiteSpace=wrap;html=1;align=center;aspect=fixed;fillColor=none;strokeColor=none;resizable=0;perimeter=centerPerimeter;rotatable=0;allowArrows=0;points=[];outlineConnect=1;" parent="1" vertex="1">
          <mxGeometry x="460" y="310" width="10" height="10" as="geometry" />
        </mxCell>
        <mxCell id="RFaDTuxYLjVsf7FS-NV_-104" value="" style="rounded=0;orthogonalLoop=1;jettySize=auto;html=1;endArrow=oval;endFill=0;sketch=0;sourcePerimeterSpacing=0;targetPerimeterSpacing=0;endSize=10;exitX=0;exitY=0.5;exitDx=0;exitDy=0;" parent="1" source="RFaDTuxYLjVsf7FS-NV_-39" edge="1">
          <mxGeometry relative="1" as="geometry">
            <mxPoint x="400" y="305" as="sourcePoint" />
            <mxPoint x="500" y="400" as="targetPoint" />
          </mxGeometry>
        </mxCell>
        <mxCell id="RFaDTuxYLjVsf7FS-NV_-105" value="" style="ellipse;whiteSpace=wrap;html=1;align=center;aspect=fixed;fillColor=none;strokeColor=none;resizable=0;perimeter=centerPerimeter;rotatable=0;allowArrows=0;points=[];outlineConnect=1;" parent="1" vertex="1">
          <mxGeometry x="450" y="310" width="10" height="10" as="geometry" />
        </mxCell>
        <mxCell id="RFaDTuxYLjVsf7FS-NV_-110" value="" style="rounded=0;orthogonalLoop=1;jettySize=auto;html=1;endArrow=oval;endFill=0;sketch=0;sourcePerimeterSpacing=0;targetPerimeterSpacing=0;endSize=10;exitX=0;exitY=0.5;exitDx=0;exitDy=0;" parent="1" source="RFaDTuxYLjVsf7FS-NV_-42" edge="1">
          <mxGeometry relative="1" as="geometry">
            <mxPoint x="400" y="305" as="sourcePoint" />
            <mxPoint x="500" y="565" as="targetPoint" />
          </mxGeometry>
        </mxCell>
        <mxCell id="RFaDTuxYLjVsf7FS-NV_-111" value="" style="ellipse;whiteSpace=wrap;html=1;align=center;aspect=fixed;fillColor=none;strokeColor=none;resizable=0;perimeter=centerPerimeter;rotatable=0;allowArrows=0;points=[];outlineConnect=1;" parent="1" vertex="1">
          <mxGeometry x="415" y="300" width="10" height="10" as="geometry" />
        </mxCell>
        <mxCell id="RFaDTuxYLjVsf7FS-NV_-112" value="" style="endArrow=open;endSize=12;dashed=1;html=1;rounded=0;" parent="1" edge="1">
          <mxGeometry width="160" relative="1" as="geometry">
            <mxPoint x="450" y="230" as="sourcePoint" />
            <mxPoint x="500" y="230" as="targetPoint" />
          </mxGeometry>
        </mxCell>
        <mxCell id="RFaDTuxYLjVsf7FS-NV_-113" value="" style="endArrow=open;endSize=12;dashed=1;html=1;rounded=0;" parent="1" edge="1">
          <mxGeometry width="160" relative="1" as="geometry">
            <mxPoint x="450" y="400" as="sourcePoint" />
            <mxPoint x="500" y="400" as="targetPoint" />
          </mxGeometry>
        </mxCell>
        <mxCell id="RFaDTuxYLjVsf7FS-NV_-114" value="" style="endArrow=open;endSize=12;dashed=1;html=1;rounded=0;" parent="1" edge="1">
          <mxGeometry width="160" relative="1" as="geometry">
            <mxPoint x="450" y="564.5" as="sourcePoint" />
            <mxPoint x="500" y="564.5" as="targetPoint" />
          </mxGeometry>
        </mxCell>
        <mxCell id="RFaDTuxYLjVsf7FS-NV_-116" value="" style="rounded=0;orthogonalLoop=1;jettySize=auto;html=1;endArrow=oval;endFill=0;sketch=0;sourcePerimeterSpacing=0;targetPerimeterSpacing=0;endSize=10;exitX=0;exitY=0.5;exitDx=0;exitDy=0;entryX=0.125;entryY=0.765;entryDx=0;entryDy=0;entryPerimeter=0;" parent="1" source="RFaDTuxYLjVsf7FS-NV_-35" target="RFaDTuxYLjVsf7FS-NV_-16" edge="1">
          <mxGeometry relative="1" as="geometry">
            <mxPoint x="500" y="280" as="sourcePoint" />
          </mxGeometry>
        </mxCell>
        <mxCell id="RFaDTuxYLjVsf7FS-NV_-117" value="" style="ellipse;whiteSpace=wrap;html=1;align=center;aspect=fixed;fillColor=none;strokeColor=none;resizable=0;perimeter=centerPerimeter;rotatable=0;allowArrows=0;points=[];outlineConnect=1;" parent="1" vertex="1">
          <mxGeometry x="470" y="290" width="10" height="10" as="geometry" />
        </mxCell>
        <mxCell id="RFaDTuxYLjVsf7FS-NV_-118" value="" style="rounded=0;orthogonalLoop=1;jettySize=auto;html=1;endArrow=oval;endFill=0;sketch=0;sourcePerimeterSpacing=0;targetPerimeterSpacing=0;endSize=10;exitX=0;exitY=0.5;exitDx=0;exitDy=0;entryX=0.121;entryY=0.286;entryDx=0;entryDy=0;entryPerimeter=0;" parent="1" source="RFaDTuxYLjVsf7FS-NV_-40" target="RFaDTuxYLjVsf7FS-NV_-25" edge="1">
          <mxGeometry relative="1" as="geometry">
            <mxPoint x="630" y="240" as="sourcePoint" />
            <mxPoint x="520" y="300" as="targetPoint" />
          </mxGeometry>
        </mxCell>
        <mxCell id="RFaDTuxYLjVsf7FS-NV_-119" value="" style="rounded=0;orthogonalLoop=1;jettySize=auto;html=1;endArrow=oval;endFill=0;sketch=0;sourcePerimeterSpacing=0;targetPerimeterSpacing=0;endSize=10;exitX=0;exitY=0.5;exitDx=0;exitDy=0;entryX=0.121;entryY=0.757;entryDx=0;entryDy=0;entryPerimeter=0;" parent="1" source="RFaDTuxYLjVsf7FS-NV_-41" target="RFaDTuxYLjVsf7FS-NV_-25" edge="1">
          <mxGeometry relative="1" as="geometry">
            <mxPoint x="620" y="410" as="sourcePoint" />
            <mxPoint x="590" y="410" as="targetPoint" />
          </mxGeometry>
        </mxCell>
        <mxCell id="RFaDTuxYLjVsf7FS-NV_-120" value="" style="line;strokeWidth=1;fillColor=none;align=left;verticalAlign=middle;spacingTop=-1;spacingLeft=3;spacingRight=3;rotatable=0;labelPosition=right;points=[];portConstraint=eastwest;strokeColor=inherit;" parent="1" vertex="1">
          <mxGeometry x="550" y="226" width="30" height="8" as="geometry" />
        </mxCell>
        <mxCell id="RFaDTuxYLjVsf7FS-NV_-121" value="" style="line;strokeWidth=1;fillColor=none;align=left;verticalAlign=middle;spacingTop=-1;spacingLeft=3;spacingRight=3;rotatable=0;labelPosition=right;points=[];portConstraint=eastwest;strokeColor=inherit;" parent="1" vertex="1">
          <mxGeometry x="550" y="397" width="30" height="8" as="geometry" />
        </mxCell>
        <mxCell id="RFaDTuxYLjVsf7FS-NV_-122" value="" style="line;strokeWidth=1;fillColor=none;align=left;verticalAlign=middle;spacingTop=-1;spacingLeft=3;spacingRight=3;rotatable=0;labelPosition=right;points=[];portConstraint=eastwest;strokeColor=inherit;" parent="1" vertex="1">
          <mxGeometry x="550" y="561" width="30" height="8" as="geometry" />
        </mxCell>
        <mxCell id="RFaDTuxYLjVsf7FS-NV_-124" value="" style="rounded=0;orthogonalLoop=1;jettySize=auto;html=1;endArrow=oval;endFill=0;sketch=0;sourcePerimeterSpacing=0;targetPerimeterSpacing=0;endSize=10;exitX=1;exitY=0.5;exitDx=0;exitDy=0;entryX=0.818;entryY=0.765;entryDx=0;entryDy=0;entryPerimeter=0;" parent="1" source="RFaDTuxYLjVsf7FS-NV_-48" target="RFaDTuxYLjVsf7FS-NV_-16" edge="1">
          <mxGeometry relative="1" as="geometry">
            <mxPoint x="460" y="290" as="sourcePoint" />
          </mxGeometry>
        </mxCell>
        <mxCell id="RFaDTuxYLjVsf7FS-NV_-125" value="" style="ellipse;whiteSpace=wrap;html=1;align=center;aspect=fixed;fillColor=none;strokeColor=none;resizable=0;perimeter=centerPerimeter;rotatable=0;allowArrows=0;points=[];outlineConnect=1;" parent="1" vertex="1">
          <mxGeometry x="415" y="300" width="10" height="10" as="geometry" />
        </mxCell>
        <mxCell id="RFaDTuxYLjVsf7FS-NV_-126" value="" style="line;strokeWidth=1;fillColor=none;align=left;verticalAlign=middle;spacingTop=-1;spacingLeft=3;spacingRight=3;rotatable=0;labelPosition=right;points=[];portConstraint=eastwest;strokeColor=inherit;" parent="1" vertex="1">
          <mxGeometry x="810" y="226" width="50" height="8" as="geometry" />
        </mxCell>
        <mxCell id="RFaDTuxYLjVsf7FS-NV_-130" value="" style="rounded=0;orthogonalLoop=1;jettySize=auto;html=1;endArrow=halfCircle;endFill=0;endSize=6;strokeWidth=1;sketch=0;fontSize=12;curved=1;exitX=1;exitY=0.5;exitDx=0;exitDy=0;entryX=0.848;entryY=0.286;entryDx=0;entryDy=0;entryPerimeter=0;" parent="1" source="RFaDTuxYLjVsf7FS-NV_-49" target="RFaDTuxYLjVsf7FS-NV_-25" edge="1">
          <mxGeometry relative="1" as="geometry">
            <mxPoint x="435" y="305" as="sourcePoint" />
          </mxGeometry>
        </mxCell>
        <mxCell id="RFaDTuxYLjVsf7FS-NV_-131" value="" style="ellipse;whiteSpace=wrap;html=1;align=center;aspect=fixed;fillColor=none;strokeColor=none;resizable=0;perimeter=centerPerimeter;rotatable=0;allowArrows=0;points=[];outlineConnect=1;" parent="1" vertex="1">
          <mxGeometry x="410" y="300" width="10" height="10" as="geometry" />
        </mxCell>
        <mxCell id="RFaDTuxYLjVsf7FS-NV_-132" value="" style="line;strokeWidth=1;fillColor=none;align=left;verticalAlign=middle;spacingTop=-1;spacingLeft=3;spacingRight=3;rotatable=0;labelPosition=right;points=[];portConstraint=eastwest;strokeColor=inherit;" parent="1" vertex="1">
          <mxGeometry x="820" y="397" width="40" height="8" as="geometry" />
        </mxCell>
        <mxCell id="RFaDTuxYLjVsf7FS-NV_-134" value="" style="rounded=0;orthogonalLoop=1;jettySize=auto;html=1;endArrow=oval;endFill=0;sketch=0;sourcePerimeterSpacing=0;targetPerimeterSpacing=0;endSize=10;exitX=1;exitY=0.5;exitDx=0;exitDy=0;" parent="1" source="RFaDTuxYLjVsf7FS-NV_-47" edge="1">
          <mxGeometry relative="1" as="geometry">
            <mxPoint x="440" y="310" as="sourcePoint" />
            <mxPoint x="910" y="230" as="targetPoint" />
          </mxGeometry>
        </mxCell>
        <mxCell id="RFaDTuxYLjVsf7FS-NV_-135" value="" style="ellipse;whiteSpace=wrap;html=1;align=center;aspect=fixed;fillColor=none;strokeColor=none;resizable=0;perimeter=centerPerimeter;rotatable=0;allowArrows=0;points=[];outlineConnect=1;" parent="1" vertex="1">
          <mxGeometry x="450" y="290" width="10" height="10" as="geometry" />
        </mxCell>
        <mxCell id="RFaDTuxYLjVsf7FS-NV_-136" value="" style="rounded=0;orthogonalLoop=1;jettySize=auto;html=1;endArrow=halfCircle;endFill=0;endSize=6;strokeWidth=1;sketch=0;fontSize=12;curved=1;exitX=1;exitY=0.5;exitDx=0;exitDy=0;" parent="1" source="RFaDTuxYLjVsf7FS-NV_-50" edge="1">
          <mxGeometry relative="1" as="geometry">
            <mxPoint x="435" y="305" as="sourcePoint" />
            <mxPoint x="920" y="400" as="targetPoint" />
          </mxGeometry>
        </mxCell>
        <mxCell id="RFaDTuxYLjVsf7FS-NV_-137" value="" style="ellipse;whiteSpace=wrap;html=1;align=center;aspect=fixed;fillColor=none;strokeColor=none;resizable=0;perimeter=centerPerimeter;rotatable=0;allowArrows=0;points=[];outlineConnect=1;" parent="1" vertex="1">
          <mxGeometry x="410" y="300" width="10" height="10" as="geometry" />
        </mxCell>
        <mxCell id="RFaDTuxYLjVsf7FS-NV_-138" value="" style="endArrow=open;endSize=12;dashed=1;html=1;rounded=0;" parent="1" edge="1">
          <mxGeometry width="160" relative="1" as="geometry">
            <mxPoint x="920" y="400" as="sourcePoint" />
            <mxPoint x="910" y="230" as="targetPoint" />
            <Array as="points">
              <mxPoint x="990" y="400" />
              <mxPoint x="990" y="230" />
            </Array>
          </mxGeometry>
        </mxCell>
        <mxCell id="RFaDTuxYLjVsf7FS-NV_-139" value="" style="whiteSpace=wrap;html=1;aspect=fixed;" parent="1" vertex="1">
          <mxGeometry x="220" y="510" width="20" height="20" as="geometry" />
        </mxCell>
        <mxCell id="RFaDTuxYLjVsf7FS-NV_-140" value="" style="whiteSpace=wrap;html=1;aspect=fixed;" parent="1" vertex="1">
          <mxGeometry x="220" y="430" width="20" height="20" as="geometry" />
        </mxCell>
        <mxCell id="RFaDTuxYLjVsf7FS-NV_-141" value="" style="whiteSpace=wrap;html=1;aspect=fixed;direction=south;" parent="1" vertex="1">
          <mxGeometry x="690" y="510" width="20" height="20" as="geometry" />
        </mxCell>
        <mxCell id="RFaDTuxYLjVsf7FS-NV_-142" value="" style="whiteSpace=wrap;html=1;aspect=fixed;" parent="1" vertex="1">
          <mxGeometry x="690" y="417.5" width="22.5" height="22.5" as="geometry" />
        </mxCell>
        <mxCell id="RFaDTuxYLjVsf7FS-NV_-143" value="" style="rounded=0;orthogonalLoop=1;jettySize=auto;html=1;endArrow=halfCircle;endFill=0;endSize=6;strokeWidth=1;sketch=0;" parent="1" edge="1">
          <mxGeometry relative="1" as="geometry">
            <mxPoint x="230" y="450" as="sourcePoint" />
            <mxPoint x="230" y="490" as="targetPoint" />
          </mxGeometry>
        </mxCell>
        <mxCell id="RFaDTuxYLjVsf7FS-NV_-144" value="" style="rounded=0;orthogonalLoop=1;jettySize=auto;html=1;endArrow=oval;endFill=0;sketch=0;sourcePerimeterSpacing=0;targetPerimeterSpacing=0;endSize=10;exitX=0.5;exitY=0;exitDx=0;exitDy=0;" parent="1" source="RFaDTuxYLjVsf7FS-NV_-139" edge="1">
          <mxGeometry relative="1" as="geometry">
            <mxPoint x="400" y="305" as="sourcePoint" />
            <mxPoint x="230" y="490" as="targetPoint" />
          </mxGeometry>
        </mxCell>
        <mxCell id="RFaDTuxYLjVsf7FS-NV_-145" value="" style="ellipse;whiteSpace=wrap;html=1;align=center;aspect=fixed;fillColor=none;strokeColor=none;resizable=0;perimeter=centerPerimeter;rotatable=0;allowArrows=0;points=[];outlineConnect=1;" parent="1" vertex="1">
          <mxGeometry x="415" y="300" width="10" height="10" as="geometry" />
        </mxCell>
        <mxCell id="RFaDTuxYLjVsf7FS-NV_-146" value="" style="rounded=0;orthogonalLoop=1;jettySize=auto;html=1;endArrow=halfCircle;endFill=0;endSize=6;strokeWidth=1;sketch=0;" parent="1" edge="1">
          <mxGeometry relative="1" as="geometry">
            <mxPoint x="700" y="440" as="sourcePoint" />
            <mxPoint x="700" y="480" as="targetPoint" />
          </mxGeometry>
        </mxCell>
        <mxCell id="RFaDTuxYLjVsf7FS-NV_-147" value="" style="rounded=0;orthogonalLoop=1;jettySize=auto;html=1;endArrow=oval;endFill=0;sketch=0;sourcePerimeterSpacing=0;targetPerimeterSpacing=0;endSize=10;exitX=0;exitY=0.5;exitDx=0;exitDy=0;" parent="1" source="RFaDTuxYLjVsf7FS-NV_-141" edge="1">
          <mxGeometry relative="1" as="geometry">
            <mxPoint x="400" y="305" as="sourcePoint" />
            <mxPoint x="700" y="480" as="targetPoint" />
          </mxGeometry>
        </mxCell>
        <mxCell id="RFaDTuxYLjVsf7FS-NV_-148" value="" style="ellipse;whiteSpace=wrap;html=1;align=center;aspect=fixed;fillColor=none;strokeColor=none;resizable=0;perimeter=centerPerimeter;rotatable=0;allowArrows=0;points=[];outlineConnect=1;" parent="1" vertex="1">
          <mxGeometry x="415" y="300" width="10" height="10" as="geometry" />
        </mxCell>
        <mxCell id="RFaDTuxYLjVsf7FS-NV_-149" value="ProductSearch" style="text;html=1;align=center;verticalAlign=middle;resizable=0;points=[];autosize=1;strokeColor=none;fillColor=none;" parent="1" vertex="1">
          <mxGeometry x="-90" y="188" width="100" height="30" as="geometry" />
        </mxCell>
        <mxCell id="RFaDTuxYLjVsf7FS-NV_-150" value="Online Shopping" style="text;html=1;align=center;verticalAlign=middle;resizable=0;points=[];autosize=1;strokeColor=none;fillColor=none;" parent="1" vertex="1">
          <mxGeometry x="-115" y="358" width="110" height="30" as="geometry" />
        </mxCell>
        <mxCell id="RFaDTuxYLjVsf7FS-NV_-151" value="UserSession" style="text;html=1;align=center;verticalAlign=middle;resizable=0;points=[];autosize=1;strokeColor=none;fillColor=none;" parent="1" vertex="1">
          <mxGeometry x="-105" y="528" width="90" height="30" as="geometry" />
        </mxCell>
        <mxCell id="RFaDTuxYLjVsf7FS-NV_-153" value="User Session" style="text;html=1;align=center;verticalAlign=middle;whiteSpace=wrap;rounded=0;" parent="1" vertex="1">
          <mxGeometry x="160" y="470" width="60" height="30" as="geometry" />
        </mxCell>
        <mxCell id="RFaDTuxYLjVsf7FS-NV_-154" value="Manage Customers" style="text;html=1;align=center;verticalAlign=middle;whiteSpace=wrap;rounded=0;" parent="1" vertex="1">
          <mxGeometry x="630" y="460" width="60" height="30" as="geometry" />
        </mxCell>
        <mxCell id="RFaDTuxYLjVsf7FS-NV_-155" value="Manage&amp;nbsp;&lt;div&gt;Customers&lt;/div&gt;" style="text;html=1;align=center;verticalAlign=middle;resizable=0;points=[];autosize=1;strokeColor=none;fillColor=none;" parent="1" vertex="1">
          <mxGeometry x="460" y="510" width="80" height="40" as="geometry" />
        </mxCell>
        <mxCell id="RFaDTuxYLjVsf7FS-NV_-156" value="Manage&amp;nbsp;&lt;div&gt;Orders&lt;/div&gt;" style="text;html=1;align=center;verticalAlign=middle;resizable=0;points=[];autosize=1;strokeColor=none;fillColor=none;" parent="1" vertex="1">
          <mxGeometry x="465" y="355" width="70" height="40" as="geometry" />
        </mxCell>
        <mxCell id="RFaDTuxYLjVsf7FS-NV_-157" value="Search&lt;div&gt;Inventory&lt;/div&gt;" style="text;html=1;align=center;verticalAlign=middle;resizable=0;points=[];autosize=1;strokeColor=none;fillColor=none;" parent="1" vertex="1">
          <mxGeometry x="465" y="178" width="70" height="40" as="geometry" />
        </mxCell>
        <mxCell id="RFaDTuxYLjVsf7FS-NV_-158" value="Manage&lt;div&gt;Inventory&lt;/div&gt;" style="text;html=1;align=center;verticalAlign=middle;resizable=0;points=[];autosize=1;strokeColor=none;fillColor=none;" parent="1" vertex="1">
          <mxGeometry x="900" y="186" width="70" height="40" as="geometry" />
        </mxCell>
        <mxCell id="RFaDTuxYLjVsf7FS-NV_-159" value="Manage&lt;div&gt;Inventory&lt;/div&gt;" style="text;html=1;align=center;verticalAlign=middle;resizable=0;points=[];autosize=1;strokeColor=none;fillColor=none;" parent="1" vertex="1">
          <mxGeometry x="900" y="355" width="70" height="40" as="geometry" />
        </mxCell>
      </root>
    </mxGraphModel>
  </diagram>
</mxfile>
